<svg height="512pt" viewBox="-17 0 512 512" width="512pt" xmlns="http://www.w3.org/2000/svg"><path d="m170.664062 187.734375c-14.132812.015625-25.582031 11.46875-25.597656 25.597656v179.203125c.015625 14.128906 11.464844 25.582032 25.597656 25.597656h247.46875c14.132813-.015624 25.582032-11.46875 25.597657-25.597656v-179.203125c-.015625-14.128906-11.464844-25.582031-25.597657-25.597656zm256 25.597656v179.203125c-.003906 4.707032-3.820312 8.527344-8.53125 8.53125h-247.46875c-4.710937-.003906-8.527343-3.824218-8.53125-8.53125v-179.203125c.003907-4.710937 3.820313-8.527343 8.53125-8.53125h247.46875c4.710938.003907 8.527344 3.820313 8.53125 8.53125zm0 0"/><path d="m213.539062 51.199219c4.714844-.058594 8.488282-3.925781 8.429688-8.636719s-3.925781-8.488281-8.636719-8.429688c-8.855469 0-25.601562 7.132813-25.601562 34.132813 0 4.714844 3.820312 8.535156 8.535156 8.535156 4.710937 0 8.53125-3.820312 8.53125-8.535156 0-15.582031 7.203125-16.953125 8.742187-17.066406zm0 0"/><path d="m4.777344 345.722656-4.265625 17.070313c-1.277344 5.097656-.132813 10.5 3.101562 14.644531 3.234375 4.140625 8.199219 6.5625 13.457031 6.5625h8.527344v34.132812c.023438 18.84375 15.292969 34.113282 34.132813 34.132813h146.007812c-11.515625 11.210937-18.011719 26.597656-18.007812 42.667969.011719 9.421875 7.644531 17.058594 17.066406 17.066406h187.734375c9.421875-.007812 17.058594-7.644531 17.066406-17.066406.003906-16.070313-6.488281-31.457032-18.003906-42.667969h35.070312c28.265626-.03125 51.171876-22.933594 51.199219-51.199219v-196.265625c-.027343-28.265625-22.933593-51.167969-51.199219-51.199219v-22.210937c3.433594 3.046875 8.667969 2.816406 11.816407-.523437 3.148437-3.34375 3.070312-8.582032-.175781-11.828126l-.414063-.410156c1.988281-2.546875 3.785156-5.230468 5.386719-8.035156l.523437.21875c4.355469 1.804688 9.347657-.265625 11.152344-4.617188 1.804687-4.355468-.261719-9.347656-4.617187-11.152343l-.542969-.222657c.847656-3.113281 1.476562-6.285156 1.875-9.488281h.597656c4.710937 0 8.53125-3.820312 8.53125-8.53125 0-4.714843-3.820313-8.535156-8.53125-8.535156h-.597656c-.402344-3.199219-1.027344-6.371094-1.878907-9.480469l.546876-.226562c4.351562-1.804688 6.421874-6.796875 4.617187-11.148438-1.804687-4.355468-6.796875-6.421875-11.152344-4.617187l-.523437.214843c-1.601563-2.804687-3.398438-5.488281-5.386719-8.035156l.410156-.410156c2.234375-2.140625 3.132813-5.316406 2.355469-8.308594-.78125-2.992187-3.117188-5.328125-6.105469-6.109375-2.992187-.78125-6.171875.121094-8.3125 2.351563l-.410156.410156c-2.546875-1.984375-5.234375-3.785156-8.035156-5.382812l.214843-.527344c1.804688-4.355469-.261718-9.347656-4.613281-11.148438-4.355469-1.804687-9.347656.261719-11.152343 4.613282l-.230469.554687c-3.113281-.84375-6.28125-1.464844-9.480469-1.867187v-.613282c0-4.714844-3.820312-8.535156-8.53125-8.535156-4.714844 0-8.535156 3.820312-8.535156 8.535156v.613282c-3.199219.402343-6.367188 1.023437-9.480469 1.867187l-.226563-.554687c-1.804687-4.351563-6.796874-6.417969-11.152343-4.613282-4.351563 1.800782-6.417969 6.792969-4.617188 11.148438l.222657.535156c-2.800782 1.597656-5.484376 3.398438-8.03125 5.386719l-.421876-.421875c-2.894531-2.917969-7.46875-3.347656-10.855468-1.011719-3.386719 2.332031-4.617188 6.753906-2.921875 10.503906l-55.648438 35.613281c-7.269531 4.71875-9.847656 14.136719-5.996093 21.902344 3.71875 7.476563 8.855468 14.15625 15.132812 19.664063-5.335938 4.808593-8.386719 11.648437-8.402344 18.832031v25.601562h-25.601562v-17.066406c-.015625-5.925781-3.105469-11.414062-8.164063-14.496094.515625-10.019531 4.441407-19.558593 11.128907-27.039062 12.757812-13.402344 17.289062-32.648438 11.855468-50.335938s-19.988281-31.066406-38.070312-34.996093c-.78125-.164063-1.566406-.230469-2.351563-.355469v-.777344c0-4.714844-3.820312-8.535156-8.53125-8.535156-4.714843 0-8.535156 3.820312-8.535156 8.535156v.8125c-18.128906 3.03125-33.230469 15.570313-39.550781 32.828125-6.316406 17.261719-2.878906 36.585938 9.003906 50.605469 7.226562 8.195312 11.832031 18.363281 13.226562 29.199219-5.121093 3.066406-8.261718 8.585937-8.277343 14.554687v17.066406h-119.46875c-18.839844.019532-34.109375 15.289063-34.132813 34.132813v34.132813h-8.53125c-5.253906-.003907-10.21875 2.410156-13.453125 6.550781-3.234375 4.140625-4.378906 9.539062-3.101562 14.636719l4.257812 17.019531c1.488281 6.089843 6.21875 10.855469 12.296875 12.394531v60.929688c-6.050781 1.539062-10.769531 6.273437-12.289062 12.324218zm16.558594 4.144532h59.730468l4.265625 17.066406h-68.261719zm77.484374-121.40625c-3.226562-4.175782-8.210937-6.613282-13.488281-6.59375h-8.535156v-17.066407h34.136719v196.265625h-34.136719v-17.066406h8.535156c5.253907 0 10.21875-2.421875 13.453125-6.566406 3.230469-4.140625 4.375-9.542969 3.101563-14.640625l-4.265625-17.070313c-1.519532-6.050781-6.238282-10.785156-12.289063-12.324218v-60.929688c6.0625-1.527344 10.789063-6.277344 12.289063-12.347656l4.265625-17.066406c1.296875-5.078126.160156-10.46875-3.074219-14.59375zm-64.6875 44.605468h34.132813v59.734375h-34.132813zm8.53125 145.066406v-34.132812h17.066407v25.601562c0 4.710938 3.820312 8.53125 8.535156 8.53125h45.652344c2.238281 6.296876 5.691406 12.097657 10.160156 17.066407h-64.347656c-9.421875-.007813-17.054688-7.644531-17.066407-17.066407zm349.878907 76.800782h-187.746094c.027344-23.554688 19.117187-42.640625 42.667969-42.667969h102.398437c23.554688.03125 42.644531 19.113281 42.679688 42.667969zm68.253906-290.132813v196.265625c-.019531 18.84375-15.289063 34.113282-34.132813 34.132813h-264.53125c-18.84375-.019531-34.113281-15.289063-34.132812-34.132813v-196.265625c.019531-18.84375 15.289062-34.113281 34.132812-34.132812h264.53125c18.84375.019531 34.113282 15.289062 34.132813 34.132812zm-121.085937-102.402343c-1.175782-1.949219-2.207032-3.984376-3.082032-6.085938-1.097656-2.667969-1.925781-5.441406-2.46875-8.273438l23.800782-37.214843c3.066406-5.515625 2.765624-12.289063-.78125-17.511719 2.261718-1.460938 4.640624-2.730469 7.113281-3.792969l.109375-.023437.070312-.046875c12.515625-5.089844 26.527344-5.089844 39.042969 0l.070313.042969.097656.019531c6.179687 2.566406 11.789062 6.328125 16.507812 11.074219l.007813.007812.007812.003906c4.742188 4.714844 8.507813 10.324219 11.074219 16.5l.023438.109375.066406.117188c5.105468 12.492187 5.101562 26.492187-.011719 38.980469l-.054687.085937-.019532.097656c-2.441406 5.796875-5.945312 11.089844-10.328125 15.601563-4.804687-6.09375-12.128906-9.660156-19.890625-9.691406zm2.785156-59.445313c.105468-.011719.203125-.046875.304687-.058594l-38.078125 59.503907h-3.789062c-8.335938-4.75-15.070313-11.871094-19.34375-20.460938zm-52.363282 85.046875c.003907-4.710938 3.820313-8.527344 8.53125-8.535156h102.402344c4.707032.007812 8.527344 3.824218 8.53125 8.535156v25.601562h-119.464844zm-110.933593-68.265625c-.011719-17.671875 13.457031-32.429687 31.054687-34.027344 17.597656-1.597656 33.507813 10.5 36.671875 27.882813 1.949219 10.738281-1.351562 21.757812-8.878906 29.660156-9.171875 9.964844-14.75 22.714844-15.839844 36.214844h-17.785156c-1.835937-13.988282-7.800781-27.117188-17.136719-37.699219-5.210937-6.160156-8.078125-13.964844-8.085937-22.03125zm17.054687 76.800781h34.144532v17.066406h-34.132813zm-153.589844 51.199219c.011719-9.421875 7.644532-17.058594 17.066407-17.066406h64.347656c-4.46875 4.96875-7.917969 10.769531-10.15625 17.066406h-45.65625c-4.714844 0-8.535156 3.820313-8.535156 8.53125v25.601563h-17.066407zm-8.609374 51.183594.078124.015625h34.132813c.085937 0 .152344-.042969.234375-.046875l16.839844-.015625v.011718l-.007813.03125-4.265625 17.085938-59.730468-.019531-4.269532-17.046875zm0 0"/><path d="m324.265625 136.535156c0 4.710938-3.820313 8.53125-8.535156 8.53125-4.710938 0-8.53125-3.820312-8.53125-8.53125 0-4.714844 3.820312-8.535156 8.53125-8.535156 4.714843 0 8.535156 3.820312 8.535156 8.535156zm0 0"/><path d="m358.398438 136.535156c0 4.710938-3.820313 8.53125-8.535157 8.53125-4.710937 0-8.53125-3.820312-8.53125-8.53125 0-4.714844 3.820313-8.535156 8.53125-8.535156 4.714844 0 8.535157 3.820312 8.535157 8.535156zm0 0"/><path d="m392.53125 136.535156c0 4.710938-3.820312 8.53125-8.53125 8.53125-4.714844 0-8.535156-3.820312-8.535156-8.53125 0-4.714844 3.820312-8.535156 8.535156-8.535156 4.710938 0 8.53125 3.820312 8.53125 8.535156zm0 0"/><path d="m409.597656 76.800781c0-14.140625-11.460937-25.601562-25.597656-25.601562-14.140625 0-25.601562 11.460937-25.601562 25.601562 0 14.136719 11.460937 25.597657 25.601562 25.597657 14.128906-.015626 25.582031-11.464844 25.597656-25.597657zm-25.597656 8.53125c-4.714844 0-8.535156-3.820312-8.535156-8.53125 0-4.714843 3.820312-8.535156 8.535156-8.535156 4.710938 0 8.53125 3.820313 8.53125 8.535156-.003906 4.710938-3.824219 8.527344-8.53125 8.53125zm0 0"/><path d="m204.796875 221.867188h-17.066406c-4.710938 0-8.53125 3.820312-8.53125 8.53125 0 4.714843 3.820312 8.535156 8.53125 8.535156h17.066406c4.714844 0 8.535156-3.820313 8.535156-8.535156 0-4.710938-3.820312-8.53125-8.535156-8.53125zm0 0"/><path d="m315.730469 221.867188h-76.796875c-4.714844 0-8.535156 3.820312-8.535156 8.53125 0 4.714843 3.820312 8.535156 8.535156 8.535156h76.796875c4.714843 0 8.535156-3.820313 8.535156-8.535156 0-4.710938-3.820313-8.53125-8.535156-8.53125zm0 0"/><path d="m238.933594 477.867188c0 4.710937-3.824219 8.53125-8.535156 8.53125-4.710938 0-8.535157-3.820313-8.535157-8.53125 0-4.714844 3.824219-8.535157 8.535157-8.535157 4.710937 0 8.535156 3.820313 8.535156 8.535157zm0 0"/><path d="m273.066406 477.867188c0 4.710937-3.820312 8.53125-8.535156 8.53125-4.710938 0-8.53125-3.820313-8.53125-8.53125 0-4.714844 3.820312-8.535157 8.53125-8.535157 4.714844 0 8.535156 3.820313 8.535156 8.535157zm0 0"/><path d="m307.199219 477.867188c0 4.710937-3.820313 8.53125-8.535157 8.53125-4.710937 0-8.53125-3.820313-8.53125-8.53125 0-4.714844 3.820313-8.535157 8.53125-8.535157 4.714844 0 8.535157 3.820313 8.535157 8.535157zm0 0"/><path d="m341.332031 477.867188c0 4.710937-3.820312 8.53125-8.535156 8.53125-4.710937 0-8.53125-3.820313-8.53125-8.53125 0-4.714844 3.820313-8.535157 8.53125-8.535157 4.714844 0 8.535156 3.820313 8.535156 8.535157zm0 0"/><path d="m375.464844 477.867188c0 4.710937-3.820313 8.53125-8.53125 8.53125-4.714844 0-8.535156-3.820313-8.535156-8.53125 0-4.714844 3.820312-8.535157 8.535156-8.535157 4.710937 0 8.53125 3.820313 8.53125 8.535157zm0 0"/></svg>