<!-- Generated by IcoMoon.io -->
<svg version="1.1" xmlns="http://www.w3.org/2000/svg" width="5781" height="1024" viewBox="0 0 5781 1024">
<title></title>
<g id="icomoon-ignore">
</g>
<path d="M5238.384 781.585h219.621v-781.585h-219.621v781.585z"></path>
<path d="M5780.944 0v781.585h-219.587v-781.585h219.587z"></path>
<path d="M468.269 303.568h-177.618v-303.568h-290.651v781.585h290.651v-387.549h177.618v387.549h290.68v-781.585h-290.68v303.568z"></path>
<path d="M1832.785 290.651l-17.776-51.659h-238.992v542.593h238.992v-326.204c0-71.064 45.234-109.806 83.981-109.806 32.288 0 74.262 6.454 74.262 77.518v0 358.492h238.992v-352.029c0-197.018-221.186-274.511-379.458-138.905v0 0 0z"></path>
<path d="M4287.28 553.878l-111.413-314.886h-163.098l-111.439 327.803-116.269-327.803h-319.708l-114.67 276.11-161.474-276.11h-272.908l321.344 549.048-41.974 103.319c-14.549 32.321-49.344 33.92-56.156 3.231 0-55.49-44.997-100.454-100.487-100.454-55.499 0-100.487 44.963-100.487 100.454 0.391 58.147 58.513 134.041 173.15 129.186 114.67-4.83 163.098-100.096 179.246-140.47v0l265.575-642.198 191.43 540.478h174.391l106.575-311.688 109.815 311.688h164.697l185.7-542.593h-95.265l-106.575 314.886z"></path>
<path d="M1170.696 211.409c-182.865 0-331.084 135.973-331.084 303.693 0 167.778 148.22 303.751 331.084 303.751 182.898 0 331.151-135.973 331.151-303.751 0-167.72-148.253-303.693-331.151-303.693v0 0 0zM1253.077 657.196c0 45.505-36.877 82.382-82.382 82.382-45.442 0-82.319-36.877-82.319-82.382v0-284.164c0-45.472 36.877-82.315 82.319-82.315 45.505 0 82.382 36.844 82.382 82.315v0 284.164z"></path>
<path d="M2942.831 558.708c1.749-12.709 2.648-30.448 2.648-43.606 0-167.72-148.249-303.693-331.113-303.693-182.898 0-331.151 135.973-331.151 303.693 0 167.778 148.253 303.751 331.151 303.751 125.65 0 234.949-64.218 291.072-158.817v0l-73.146-27.066c-44.206 67.558-125.259 112.796-217.926 112.796-45.505 0-82.382-43.065-82.382-88.569v0-98.463l410.847-0.025zM2531.984 373.033c0-45.472 36.877-82.315 82.382-82.315 45.471 0 82.348 36.844 82.348 82.315v0 108.182h-164.73v-108.182z"></path>
<path d="M5155.069 558.708c1.782-12.709 2.682-30.448 2.682-43.606 0-167.72-148.249-303.693-331.142-303.693-182.869 0-331.118 135.973-331.118 303.693 0 167.778 148.249 303.751 331.118 303.751 125.68 0 234.978-64.218 291.101-158.817v0l-73.146-27.066c-44.206 67.558-125.255 112.796-217.955 112.796-45.48 0-82.348-43.065-82.348-88.569v0-98.463l410.809-0.025zM4744.26 373.033c0-45.472 36.869-82.315 82.348-82.315 45.505 0 82.382 36.844 82.382 82.315v0 108.182h-164.73v-108.182z"></path>
</svg>
