<!-- Generated by IcoMoon.io -->
<svg version="1.1" xmlns="http://www.w3.org/2000/svg" width="2048" height="1024" viewBox="0 0 2048 1024">
<title></title>
<g id="icomoon-ignore">
</g>
<path d="M355.396 244.565v36.591h260.267v-36.591zM652.561 244.565v36.591h370.927c0 0-37.888-36.591-88.064-36.591zM1096.243 244.565v36.591h224.375l-13.312-36.591zM1481.523 244.565l-13.312 36.591h222.379v-36.591zM355.396 315.733v36.591h260.267v-36.591zM652.561 315.785v36.523h413.935c0 0-4.83-28.16-13.261-36.523zM1096.243 315.785v36.523h249.173l-12.322-36.523zM1454.882 315.785l-12.322 36.523h248.013v-36.523zM430.199 386.901v36.642h112.725v-36.642zM727.364 386.901v36.642h112.725v-36.642zM949.743 386.901v36.642h112.725c0 0 7.168-19.354 7.168-36.642zM1171.063 386.901v36.642h199.68l-13.312-36.642zM1430.357 386.901l-13.38 36.642h200.841v-36.642zM430.217 458.121v36.591h112.725v-36.591zM727.381 458.121v36.591h287.915c0 0 24.064-18.773 31.744-36.591zM1171.063 458.121v36.591h112.725v-20.378l7.168 20.378h206.507l7.68-20.378v20.378h112.725v-36.591h-211.627l-11.23 30.993-11.264-30.993zM430.199 529.289v36.591h112.725v-36.591zM727.364 529.289v36.591h319.659c-7.68-17.749-31.744-36.591-31.744-36.591zM1171.046 529.289v36.591h112.725v-36.591zM1304.252 529.289l13.653 36.591h154.829l12.971-36.591zM1505.092 529.289v36.591h112.725v-36.591zM430.234 600.457v36.591h112.725v-36.591zM727.398 600.457v36.591h112.725v-36.591zM949.777 600.457v36.591h119.876c0-17.271-7.168-36.591-7.168-36.591zM1171.098 600.457v36.591h112.725v-36.591zM1329.886 600.457l13.21 36.591h103.765l13.312-36.591zM1505.126 600.457v36.591h112.725v-36.591zM357.478 671.625v36.642h260.267v-36.642zM652.612 671.625v36.642h400.691c8.431-8.397 13.261-36.642 13.261-36.642zM1098.325 671.625v36.642h185.429v-36.642zM1355.52 671.625l13.585 36.642h52.804l12.749-36.642zM1505.126 671.625v36.642h187.529v-36.642zM357.478 742.844v36.591h260.267v-36.591zM652.612 742.844v36.523h282.812c50.176 0 88.064-36.523 88.064-36.523zM1098.325 742.844v36.591h185.429v-36.591zM1381.291 742.844l13.056 36.489 2.253 0.051 13.261-36.523zM1505.143 742.844v36.591h187.529v-36.591z"></path>
</svg>
