<!-- Generated by IcoMoon.io -->
<svg version="1.1" xmlns="http://www.w3.org/2000/svg" width="1553" height="1024" viewBox="0 0 1553 1024">
<title></title>
<g id="icomoon-ignore">
</g>
<path d="M457.505 434.343v250.757h-79.823v-315.19l164.795 0.164c69.995 0 93.839 49.36 93.839 94.195v220.832h-79.679v-220.419c0-18.781-9.722-30.338-33.172-30.338h-65.96zM1000.29 430.577c-27.283 0-48.399 14.026-57.218 33.067-5.226 11.432-7.023 20.194-7.637 34.191h122.804c-1.576-34.191-17.081-67.257-57.948-67.257zM935.435 552.161c0 40.829 25.381 70.879 70.697 70.879 35.257 0 52.78-9.77 73.166-30.050l49.302 47.073c-31.568 31.165-64.692 50.090-123.054 50.090-76.413 0-149.54-41.665-149.54-163.095 0-103.754 63.847-162.49 147.743-162.49 85.040 0 134.169 68.766 134.169 158.839v28.753h-202.483zM788.623 684.706c-65.029 0-92.619-45.267-92.619-89.977v-310.694h79.698v85.875h60.081v64.433h-60.081v155.39c0 18.311 8.646 28.475 27.658 28.475h32.423v66.498h-47.16zM306.659 326.353h-80.371v-76.345h80.371v76.345zM306.861 688.415c-60.187-5.783-80.659-42.289-80.659-84.415l0.087-234.089h80.572v318.505zM1264.767 681.68c-60.062-5.793-80.438-42.241-80.438-84.309v-358.229h80.438v442.538zM1545.968 290.913c-72.897-355.404-762.791-377.904-1207.472-107.193v29.887c444.229-228.296 1074.254-226.952 1131.655 100.391 19.204 108.24-41.79 221.091-150.721 285.957v84.867c131.114-47.967 265.581-203.511 226.539-393.909zM737.64 912.734c-306.9 28.369-626.711-16.178-671.459-255.993-21.904-118.222 31.952-243.543 103.398-321.387v-41.626c-128.616 112.784-198.419 255.57-158.234 424.285 51.291 216.346 325.767 338.948 744.711 298.234 165.756-16.178 382.707-69.477 533.534-152.259v-117.607c-136.859 81.495-363.33 148.886-551.95 166.352z"></path>
<path d="M1357.748 262.929c0-3.9-2.277-5.14-7.484-5.14h-5.024v11.038c0.73 0 4.381 0.134 5.024 0.134 5.207 0 7.484-1.739 7.484-5.389v-0.643zM1365.587 290.299h-5.956c-0.538 0-1.009-0.337-1.239-0.788l-8.127-13.776c-0.144-0.278-0.845-0.615-1.124-0.615h-3.651v13.661c0 0.73-0.5 1.518-1.46 1.518h-5.389c-0.672 0-1.345-0.788-1.345-1.518v-34.556c0-1.998 0.778-2.834 2.469-3.093 1.902-0.25 7.071-0.423 9.857-0.423 9.895 0 15.88 2.92 15.88 12.22v0.643c0 5.754-2.863 8.79-7.301 10.279l8.425 14.247c0.054 0.288 0.25 0.682 0.25 1.018 0 0.557-0.337 1.182-1.287 1.182zM1351.446 244.474c-14.66 0-26.515 12.105-26.515 26.678 0 14.593 11.855 26.505 26.515 26.505 14.583 0 26.553-11.912 26.553-26.505 0-14.574-11.97-26.678-26.553-26.678zM1351.446 303.153c-17.811 0-32.020-14.372-32.020-32 0-17.6 14.209-32.010 32.020-32.010 17.619 0 32.096 14.41 32.096 32.010 0 17.629-14.477 32-32.096 32z"></path>
</svg>
