<!-- Generated by IcoMoon.io -->
<svg version="1.1" xmlns="http://www.w3.org/2000/svg" width="2134" height="1024" viewBox="0 0 2134 1024">
<title></title>
<g id="icomoon-ignore">
</g>
<path d="M903.419 389.541h66.113v243.416h-66.113v-243.416z"></path>
<path d="M1180.267 459.786c-4.132-31.554-34.559-34.935-60.854-34.935-27.422 0-45.077 12.396-45.077 28.549 0 12.772 10.894 20.285 27.798 22.914l82.641 13.147c44.326 7.137 78.134 23.665 78.134 67.991 0 45.453-30.803 81.89-126.216 81.89-59.351 0-136.358-7.513-137.109-83.393h74.377c0.751 33.432 34.183 39.067 62.732 39.067 31.178 0 52.214-9.015 52.214-30.427 0-18.782-15.026-23.665-41.321-27.798l-60.478-9.015c-42.072-6.386-83.017-19.158-83.017-68.742 0-54.092 44.326-76.255 120.581-76.255 49.96 0 124.337 8.64 128.845 77.382h-73.25z"></path>
<path d="M1577.696 389.541h176.927c67.616 0 78.885 41.321 78.885 66.113 0 29.676-12.021 48.833-39.442 58.6v0.751c28.924 4.508 33.432 41.321 33.432 64.986 0 12.021 1.127 40.569 12.772 52.966h-72.123c-6.010-11.269-6.386-21.036-6.386-46.58 0-34.183-14.65-42.448-34.935-42.448h-82.266v89.403h-66.864v-243.792zM1643.809 496.974h87.525c14.65 0 31.554-8.264 31.554-31.178 0-24.041-19.158-30.427-34.935-30.427h-84.144v61.605z"></path>
<path d="M2042.741 582.621h-111.941l-19.909 49.96h-71.372l107.058-243.416h79.636l107.058 243.416h-71.372l-19.158-49.96zM1986.77 441.755l-38.315 96.54h76.255l-37.94-96.54z"></path>
<path d="M1467.633 582.621h-111.566l-19.909 49.96h-71.372l107.058-243.416h79.636l107.058 243.416h-71.372l-19.533-49.96zM1412.038 441.755l-38.315 96.54h76.255l-37.94-96.54z"></path>
<path d="M606.286 543.554l-57.473 57.473c-13.147 13.147-34.559 13.147-47.707 0l-57.473-57.473c-13.147-13.147-13.147-34.559 0-47.707l57.473-57.473c13.147-13.147 34.559-13.147 47.707 0l57.473 57.473c13.147 13.147 13.147 34.559 0 47.707z"></path>
<path d="M584.123 284.361l-28.924 28.924c-13.147 13.147-34.559 13.147-47.707 0l-28.924-28.924c-13.147-13.147-13.147-34.559 0-47.707l28.924-28.924c13.147-13.147 34.559-13.147 47.707 0l28.924 28.924c13.147 13.147 13.147 34.559 0 47.707z"></path>
<path d="M734.004 673.902l-50.712 50.712c-13.147 13.147-34.559 13.147-47.707 0l-50.712-50.712c-13.147-13.147-13.147-34.559 0-47.707l50.712-50.712c13.147-13.147 34.559-13.147 47.707 0l50.712 50.712c13.147 12.772 13.147 34.183 0 47.707z"></path>
<path d="M832.423 790.726l-30.803 30.803c-13.147 13.147-34.559 13.147-47.707 0l-30.803-30.803c-13.147-13.147-13.147-34.559 0-47.707l30.803-30.803c13.147-13.147 34.559-13.147 47.707 0l30.803 30.803c13.523 13.147 13.523 34.183 0 47.707z"></path>
<path d="M753.913 327.935l-30.803-30.803c-13.147-13.147-13.147-34.559 0-47.707l30.803-30.803c13.147-13.147 34.559-13.147 47.707 0l30.803 30.803c13.147 13.147 13.147 34.559 0 47.707l-30.803 30.803c-13.147 13.147-34.559 13.147-47.707 0z"></path>
<path d="M585.25 804.249l-32.681 32.681c-13.147 13.147-34.559 13.147-47.707 0l-32.681-32.681c-13.147-13.147-13.147-34.559 0-47.707l32.681-32.681c13.147-13.147 34.559-13.147 47.707 0l32.681 32.681c13.147 13.147 13.147 34.559 0 47.707z"></path>
<path d="M842.941 543.178l-28.924 28.924c-13.147 13.147-34.559 13.147-47.707 0l-28.924-28.924c-13.147-13.147-13.147-34.559 0-47.707l28.924-28.924c13.147-13.147 34.559-13.147 47.707 0l28.924 28.924c13.147 13.147 13.147 34.559 0 47.707z"></path>
<path d="M731.751 410.952l-45.828 45.828c-13.147 13.147-34.559 13.147-47.707 0l-45.828-45.828c-13.147-13.147-13.147-34.559 0-47.707l45.828-45.828c13.147-13.147 34.559-13.147 47.707 0l45.828 45.828c13.147 12.772 13.147 34.183 0 47.707z"></path>
<path d="M315.539 365.5l50.712-50.712c13.147-13.147 34.559-13.147 47.707 0l50.712 50.712c13.147 13.147 13.147 34.559 0 47.707l-50.712 50.712c-13.147 13.147-34.559 13.147-47.707 0l-50.712-50.712c-13.147-13.147-13.147-34.559 0-47.707z"></path>
<path d="M215.994 249.426l32.681-32.681c12.772-12.772 33.056-12.772 45.828 0l32.681 32.681c12.772 12.772 12.772 33.056 0 45.828l-32.681 32.681c-12.772 12.772-33.056 12.772-45.828 0l-32.681-32.681c-12.772-12.396-12.772-33.056 0-45.828z"></path>
<path d="M700.572 158.521l-21.036 21.036c-9.767 9.767-25.168 9.767-34.935 0l-21.036-21.036c-9.767-9.767-9.767-25.168 0-34.935l21.036-21.036c9.767-9.767 25.168-9.767 34.935 0l21.036 21.036c9.391 9.391 9.391 25.168 0 34.935z"></path>
<path d="M363.997 132.226l22.539-22.539c9.767-9.767 25.168-9.767 34.935 0l22.539 22.539c9.767 9.767 9.767 25.168 0 34.935l-22.539 22.539c-9.767 9.767-25.168 9.767-34.935 0l-22.539-22.539c-9.391-9.767-9.391-25.168 0-34.935z"></path>
<path d="M498.477 30.427l23.29-23.29c9.391-9.391 24.792-9.391 34.559 0l23.29 23.29c9.391 9.391 9.391 24.792 0 34.559l-23.29 23.29c-9.391 9.391-24.792 9.391-34.559 0l-23.29-23.29c-9.767-9.767-9.767-25.168 0-34.559z"></path>
<path d="M158.145 359.114l21.036 21.036c9.767 9.767 9.767 25.168 0 34.935l-21.036 21.036c-9.767 9.767-25.168 9.767-34.935 0l-21.036-21.036c-9.767-9.767-9.767-25.168 0-34.935l21.036-21.036c9.767-9.767 25.168-9.767 34.935 0z"></path>
<path d="M131.85 691.557l-22.539-22.539c-9.767-9.767-9.767-25.168 0-34.935l22.539-22.539c9.767-9.767 25.168-9.767 34.935 0l22.539 22.539c9.767 9.767 9.767 25.168 0 34.935l-22.539 22.539c-9.391 9.767-25.168 9.767-34.935 0z"></path>
<path d="M30.051 560.833l-22.539-22.539c-9.767-9.767-9.767-25.168 0-34.935l22.539-22.539c9.767-9.767 25.168-9.767 34.935 0l22.539 22.539c9.767 9.767 9.767 25.168 0 34.935l-22.539 22.539c-9.767 9.767-25.544 9.767-34.935 0z"></path>
<path d="M363.997 865.855l21.036-21.036c9.767-9.767 25.168-9.767 34.935 0l21.036 21.036c9.767 9.767 9.767 25.168 0 34.935l-21.036 21.036c-9.767 9.767-25.168 9.767-34.935 0l-21.036-21.036c-9.391-9.767-9.391-25.168 0-34.935z"></path>
<path d="M700.572 892.15l-22.539 22.539c-9.767 9.767-25.168 9.767-34.935 0l-22.539-22.539c-9.767-9.767-9.767-25.168 0-34.935l22.539-22.539c9.767-9.767 25.168-9.767 34.935 0l22.539 22.539c9.391 9.391 9.391 25.168 0 34.935z"></path>
<path d="M566.092 993.949l-22.539 22.539c-9.767 9.767-25.168 9.767-34.935 0l-22.539-22.539c-9.767-9.767-9.767-25.168 0-34.935l22.539-22.539c9.767-9.767 25.168-9.767 34.935 0l22.539 22.539c9.391 9.767 9.391 25.544 0 34.935z"></path>
<path d="M295.63 711.090l30.803 30.803c13.147 13.147 13.147 34.559 0 47.707l-30.803 30.803c-13.147 13.147-34.559 13.147-47.707 0l-30.803-30.803c-13.147-13.147-13.147-34.559 0-47.707l30.803-30.803c13.147-13.147 34.559-13.147 47.707 0z"></path>
<path d="M206.979 496.223l28.924-28.924c13.147-13.147 34.559-13.147 47.707 0l28.924 28.924c13.147 13.147 13.147 34.559 0 47.707l-28.924 28.924c-13.147 13.147-34.559 13.147-47.707 0l-28.924-28.924c-13.523-13.147-13.523-34.559 0-47.707z"></path>
<path d="M317.042 629.576l47.707-47.707c12.772-12.772 33.056-12.772 45.828 0l47.707 47.707c12.772 12.772 12.772 33.056 0 45.828l-47.707 47.707c-12.772 12.772-33.056 12.772-45.828 0l-47.707-47.707c-12.772-12.772-12.772-33.432 0-45.828z"></path>
</svg>
