<!-- Generated by IcoMoon.io -->
<svg version="1.1" xmlns="http://www.w3.org/2000/svg" width="1391" height="1024" viewBox="0 0 1391 1024">
<title></title>
<g id="icomoon-ignore">
</g>
<path d="M1381.004 991.6c0 14.922-10.957 24.937-23.928 24.937v-0.091c-13.339 0.091-24.094-9.924-24.094-24.842 0-14.914 10.755-24.901 24.094-24.901 12.975-0.004 23.928 9.983 23.928 24.897zM1390.711 991.6c0-20.477-15.907-32.364-33.634-32.364-17.85 0-33.757 11.887-33.757 32.364 0 20.465 15.911 32.4 33.757 32.4 17.731 0 33.634-11.934 33.634-32.4zM1351.497 994.339h3.601l8.345 14.653h9.164l-9.243-15.27c4.776-0.34 8.705-2.616 8.705-9.046 0-7.989-5.508-10.557-14.839-10.557h-13.497v34.873h7.76v-14.653zM1351.497 988.435v-8.397h5.397c2.936 0 6.937 0.237 6.937 3.818 0 3.898-2.069 4.578-5.532 4.578h-6.802z"></path>
<path d="M1164.207 813.213l41.936 114.724h-85.169l43.234-114.724zM1119.295 768.543l-96.641 244.856h68.242l15.286-43.265h114.368l14.467 43.265h74.082l-97.361-244.888-92.442 0.032zM925.274 1013.49h69.235v-245.022l-69.247-0.016 0.012 245.038zM444.635 768.452l-57.764 194.199-55.334-194.183-74.703-0.016 79.028 245.038h99.743l79.665-245.038h-70.636zM724.49 821.808h29.756c43.17 0 71.091 19.381 71.091 69.678 0 50.309-27.92 69.694-71.091 69.694h-29.756v-139.372zM655.837 768.452v245.038h112.243c59.801 0 79.329-9.94 100.443-32.241 14.914-15.658 24.561-50.020 24.561-87.583 0-34.453-8.163-65.163-22.396-84.299-25.645-34.224-62.587-40.915-117.719-40.915h-97.131zM0 768.112v245.379h69.82v-186.317l54.099 0.016c17.913 0 30.682 4.463 39.308 13.679 10.941 11.653 15.408 30.465 15.408 64.874v107.748h67.656v-135.573c0-96.759-61.673-109.805-122.017-109.805h-124.276zM544.409 768.452l0.028 245.038h69.203v-245.038h-69.231z"></path>
<path d="M186.068 280.556c0 0 89.047-131.383 266.845-144.975v-47.665c-196.934 15.816-367.47 182.609-367.47 182.609s96.589 279.222 367.47 304.788v-50.665c-198.785-25.008-266.845-244.093-266.845-244.093zM452.913 423.889v46.399c-150.238-26.785-191.94-182.958-191.94-182.958s72.135-79.911 191.94-92.87v50.914c-0.091 0-0.154-0.028-0.23-0.028-62.88-7.546-112.002 51.195-112.002 51.195s27.532 98.888 112.231 127.347zM452.913 0v87.916c5.781-0.443 11.562-0.819 17.375-1.017 223.892-7.546 369.773 183.626 369.773 183.626s-167.549 203.736-342.106 203.736c-15.998 0-30.975-1.484-45.042-3.977v54.365c12.029 1.527 24.501 2.426 37.516 2.426 162.437 0 279.907-82.958 393.653-181.141 18.859 15.104 96.067 51.848 111.938 67.933-108.151 90.547-360.205 163.537-503.103 163.537-13.774 0-27.002-0.835-40.005-2.089v76.393h617.411v-651.706h-617.411zM452.913 194.46v-58.875c5.722-0.4 11.487-0.708 17.375-0.894 161-5.057 266.627 138.355 266.627 138.355s-114.087 158.448-236.412 158.448c-17.604 0-33.389-2.829-47.594-7.605v-178.514c62.678 7.574 75.293 35.26 112.975 98.077l83.808-70.667c0 0-61.178-80.235-164.308-80.235-11.21-0.004-21.937 0.783-32.471 1.911z"></path>
</svg>
